<?xml version="1.0" standalone="no"?>
<!DOCTYPE svg PUBLIC "-//W3C//DTD SVG 1.1//EN" "http://www.w3.org/Graphics/SVG/1.1/DTD/svg11.dtd" >
<svg xmlns="http://www.w3.org/2000/svg">
<metadata></metadata>
<defs>
<font id="frutiger_lt_std_45_lightbold" horiz-adv-x="1138" >
<font-face units-per-em="2048" ascent="1536" descent="-512" />
<missing-glyph horiz-adv-x="569" />
<glyph unicode="&#xfb01;" horiz-adv-x="1366" d="M39 854v201h203v147q0 162 88.5 260.5t247.5 98.5q98 0 200 -23l-22 -227q-1 1 -8.5 5t-10 5.5t-10 5.5t-12 5.5t-12.5 4.5t-14.5 4.5t-15 3.5t-17.5 2.5t-19 0.5q-64 0 -92.5 -46t-28.5 -116v-131h240v-201h-240v-854h-274v854h-203zM944 0v1055h275v-1055h-275z M944 1247v262h275v-262h-275z" />
<glyph unicode="&#xfb02;" horiz-adv-x="1366" d="M39 854v201h203v147q0 162 88.5 260.5t247.5 98.5q98 0 200 -23l-22 -227q-1 1 -8.5 5t-10 5.5t-10 5.5t-12 5.5t-12.5 4.5t-14.5 4.5t-15 3.5t-17.5 2.5t-19 0.5q-64 0 -92.5 -46t-28.5 -116v-131h240v-201h-240v-854h-274v854h-203zM944 0v1536h275v-1536h-275z" />
<glyph horiz-adv-x="2048" />
<glyph horiz-adv-x="2048" />
<glyph unicode="&#xd;" horiz-adv-x="2048" />
<glyph unicode=" "  horiz-adv-x="569" />
<glyph unicode="&#x09;" horiz-adv-x="569" />
<glyph unicode="&#xa0;" horiz-adv-x="569" />
<glyph unicode="!" horiz-adv-x="796" d="M242 1430h315l-43 -1010h-233zM256 0v287h287v-287h-287z" />
<glyph unicode="&#x22;" horiz-adv-x="985" d="M180 918v512h250v-512h-250zM555 918v512h250v-512h-250z" />
<glyph unicode="#" d="M68 420v164h206l35 262h-180v164h205l57 420h182l-57 -420h209l57 420h181l-58 -420h166v-164h-190l-35 -262h166v-164h-189l-59 -420h-180l59 420h-209l-61 -420h-180l59 420h-184zM457 584h209l34 262h-208z" />
<glyph unicode="$" d="M119 1018q0 102 33 181.5t91 130t129.5 80t157.5 40.5v152h97v-148q185 0 334 -51l-27 -236q-143 62 -291 62q-10 0 -16 -2v-379q144 -57 185 -79q159 -82 207 -213q25 -66 25 -148q0 -191 -114 -296t-303 -128v-168h-97v161q-8 -2 -22 -2q-26 0 -48 0.5t-46 3t-38 3 t-40 5.5t-34.5 6t-38.5 8t-35.5 8.5t-42.5 10.5t-44 11l27 258q163 -88 324 -88q24 0 38 4v383q-148 58 -199 86q-159 87 -198 230q-14 53 -14 114zM418 1030q0 -47 28.5 -80t83.5 -61v319q-112 -52 -112 -178zM627 229q118 50 118 156q0 99 -118 158v-314z" />
<glyph unicode="%" horiz-adv-x="2048" d="M217 1077q0 179 90 278t254 99q163 0 251.5 -99t88.5 -278t-88.5 -278t-251.5 -99q-164 0 -254 99t-90 278zM430 1077q0 -38 5.5 -71.5t19 -67.5t40.5 -54t66 -20q127 0 127 213t-127 213q-39 0 -66 -20t-40.5 -54t-19 -67.5t-5.5 -71.5zM502 -45l884 1520h168 l-884 -1520h-168zM1149 352q0 179 90 278t254 99q163 0 251.5 -99t88.5 -278t-88.5 -278t-251.5 -99q-164 0 -254 99t-90 278zM1362 352q0 -38 5.5 -71.5t19 -67.5t40.5 -54t66 -20q127 0 127 213t-127 213q-39 0 -66 -20t-40.5 -54t-19 -67.5t-5.5 -71.5z" />
<glyph unicode="&#x26;" horiz-adv-x="1478" d="M123 391q0 135 68.5 229.5t232.5 163.5q-95 89 -125 128q-74 94 -74 216q0 78 39 142t103 103t139.5 60t152.5 21q62 0 120 -11.5t111.5 -36.5t93.5 -62t63.5 -92t23.5 -122q0 -57 -14.5 -106.5t-37 -85.5t-60.5 -71t-74.5 -60t-89.5 -55l262 -287q82 94 90 311h250 q-13 -286 -183 -489l256 -287h-352l-96 127q-73 -74 -176 -113t-213 -39q-143 0 -257.5 47t-183.5 143t-69 226zM397 399q0 -92 70 -151.5t172 -59.5q161 0 250 86l-318 355q-174 -91 -174 -230zM500 1102q0 -17 4 -33t13.5 -33t17.5 -29.5t24.5 -30.5t24.5 -26l27 -27 l24 -24q68 35 127 92.5t59 114.5q0 71 -45.5 109t-111.5 38q-67 0 -115.5 -39t-48.5 -112z" />
<glyph unicode="'" horiz-adv-x="569" d="M160 918v512h250v-512h-250z" />
<glyph unicode="(" horiz-adv-x="681" d="M80 631q0 268 80.5 478.5t247.5 438.5h260q-72 -116 -121.5 -211t-92 -208.5t-63 -236.5t-20.5 -261q0 -247 76.5 -468.5t220.5 -449.5h-260q-161 220 -244.5 443t-83.5 475z" />
<glyph unicode=")" horiz-adv-x="681" d="M14 -287q143 230 220 451t77 467q0 263 -74 470t-223 447h258q167 -231 248.5 -440.5t81.5 -476.5q0 -251 -84.5 -473.5t-245.5 -444.5h-258z" />
<glyph unicode="*" d="M147 1036l68 213l272 -116l-32 297h233l-35 -295l273 114l65 -213l-284 -63l196 -219l-188 -136l-146 254l-155 -254l-187 136l201 219z" />
<glyph unicode="+" horiz-adv-x="1228" d="M94 412v213h414v411h213v-411h414v-213h-414v-412h-213v412h-414z" />
<glyph unicode="," horiz-adv-x="569" d="M47 -225l131 512h297l-186 -512h-242z" />
<glyph unicode="-" horiz-adv-x="681" d="M72 438v226h538v-226h-538z" />
<glyph unicode="." horiz-adv-x="569" d="M141 0v287h287v-287h-287z" />
<glyph unicode="/" horiz-adv-x="796" d="M43 -25l500 1479h213l-500 -1479h-213z" />
<glyph unicode="0" d="M72 711q0 114 14 215.5t49.5 200t90 169.5t142 114.5t199.5 43.5q87 0 159 -24t123 -64.5t90 -99.5t63 -123t39 -140t20.5 -146t5.5 -146t-6 -145.5t-21 -145t-39 -139t-63.5 -121t-90 -98t-122.5 -64t-158 -23.5q-495 0 -495 736zM358 640q0 -24 2 -71.5t5.5 -78 t11 -74.5t17.5 -72.5t26 -61t36.5 -51t48.5 -31t62 -12.5q35 0 64 13t49.5 31.5t37 52t27 61.5t17.5 73.5t10.5 75t5.5 79t2 71.5v66v67.5t-2 73t-5.5 79.5t-11 76t-18 74.5t-27 62.5t-37 52t-49 32t-63.5 13q-34 0 -62 -13t-48.5 -32t-36.5 -52t-26 -62.5t-17.5 -74.5 t-11 -76t-5.5 -79.5t-2 -73v-67.5v-5v-66z" />
<glyph unicode="1" d="M162 1094l418 336h254v-1430h-287v1104l-242 -197z" />
<glyph unicode="2" d="M84 0v240q16 16 90 84.5t131 122.5t136.5 140t132 156.5t90.5 150.5t38 142q0 63 -34.5 108t-86 65t-112.5 20q-153 0 -330 -115l-22 238q199 102 424 102q209 0 328.5 -106t119.5 -312q0 -59 -16.5 -121.5t-41.5 -116.5t-67 -116t-79.5 -109t-95 -108t-97 -100.5 t-99.5 -98.5q-28 -27 -42 -41h583v-225h-950z" />
<glyph unicode="3" d="M92 23l17 243q163 -65 317 -65q48 0 98 11.5t96.5 34.5t76.5 63.5t30 92.5q0 224 -315 224h-140v225h131q148 0 233 48t85 140q0 52 -20 89.5t-55 59t-77.5 31t-93.5 9.5q-166 0 -321 -76l-17 229q184 72 400 72q59 0 117 -8.5t124 -33.5t115.5 -64t82 -106.5 t32.5 -154.5q0 -135 -71.5 -215t-195.5 -127v-4q132 -18 202.5 -111t70.5 -229q0 -98 -34.5 -174.5t-89 -123t-128.5 -76.5t-146 -41t-149 -11q-211 0 -375 48z" />
<glyph unicode="4" d="M33 297v231l534 902h357v-920h182v-213h-182v-297h-275v297h-616zM291 510h358v620h-4z" />
<glyph unicode="5" d="M147 16l7 256q53 -22 82 -33t90.5 -24.5t119.5 -13.5q59 0 111.5 14t97 43t71 79t26.5 116t-27.5 115.5t-75.5 77.5t-104 41t-121 13q-138 0 -256 -38l14 768h822v-213h-551l-7 -306q83 15 132 15q65 0 125.5 -12.5t123 -45t108 -83t74.5 -134t29 -190.5 q0 -102 -35.5 -189.5t-104 -154t-175.5 -104.5t-242 -38q-166 0 -334 41z" />
<glyph unicode="6" d="M90 641q0 87 8 167.5t27.5 163t50 152.5t77 131.5t106 105t141 68.5t178.5 25q158 0 301 -51l-37 -232q-134 58 -250 58q-72 0 -129.5 -26t-95 -68.5t-63.5 -101t-37.5 -119.5t-14.5 -128l4 -4q100 144 277 144q199 0 308.5 -118t109.5 -319q0 -239 -120 -376.5 t-356 -137.5q-485 0 -485 666zM377 442q0 -110 49 -182t149 -72q93 0 141 75t48 181q0 73 -19.5 132t-65 98t-110.5 39q-50 0 -88 -22t-60.5 -60.5t-33 -85.5t-10.5 -103z" />
<glyph unicode="7" d="M102 1204v226h922v-238l-508 -1192h-311l530 1204h-633z" />
<glyph unicode="8" d="M72 387q0 118 65 204t197 150v4q-110 48 -174 135t-64 197q0 185 125.5 281t329.5 96q97 0 181.5 -20.5t152 -61t106.5 -108t39 -154.5q0 -104 -62 -200.5t-175 -141.5v-2q274 -128 274 -375q0 -106 -36.5 -186.5t-103.5 -130t-155.5 -74.5t-196.5 -25q-107 0 -196.5 24 t-159 72.5t-108.5 129t-39 186.5zM358 391q0 -87 64.5 -145t152.5 -58q89 0 147 52t58 139q0 170 -239 248q-87 -42 -135 -97t-48 -139zM371 1069q0 -44 20 -79.5t57.5 -61.5t69.5 -41t78 -33q63 23 111.5 83t48.5 124q0 80 -47.5 130t-128.5 50q-85 0 -147 -45.5 t-62 -126.5z" />
<glyph unicode="9" d="M90 940q0 240 119.5 377t355.5 137q486 0 486 -666q0 -87 -8 -167.5t-27.5 -163t-50 -152.5t-77 -131.5t-106 -105t-141 -68.5t-178.5 -25q-155 0 -301 52l37 231q131 -57 250 -57q72 0 129.5 26t95 68t63 100.5t37 119.5t14.5 128l-4 4q-97 -143 -276 -143 q-199 0 -308.5 117.5t-109.5 318.5zM377 985q0 -73 19 -131.5t64.5 -97.5t110.5 -39q98 0 145.5 76.5t47.5 193.5q0 110 -49.5 182t-149.5 72q-93 0 -140.5 -75t-47.5 -181z" />
<glyph unicode=":" horiz-adv-x="569" d="M141 0v287h287v-287h-287zM141 768v287h287v-287h-287z" />
<glyph unicode=";" horiz-adv-x="569" d="M47 -225l131 512h297l-186 -512h-242zM141 768v287h287v-287h-287z" />
<glyph unicode="&#x3c;" horiz-adv-x="1228" d="M94 430v176l1041 447v-209l-764 -326l764 -325v-209z" />
<glyph unicode="=" horiz-adv-x="1228" d="M94 188v213h1041v-213h-1041zM94 635v213h1041v-213h-1041z" />
<glyph unicode="&#x3e;" horiz-adv-x="1228" d="M94 -16v209l764 325l-764 326v209l1041 -447v-176z" />
<glyph unicode="?" horiz-adv-x="1024" d="M102 1386q228 68 406 68q73 0 139.5 -12.5t127 -41.5t104.5 -70.5t70 -104t26 -138.5q0 -58 -20.5 -113t-53 -99t-71.5 -87t-76.5 -85t-68 -85t-47 -94.5t-11.5 -105.5h-252q0 91 23.5 168.5t52.5 122t73 94.5q11 12 37 39.5t37 40.5t29.5 37t26.5 42t15 42.5t7 50.5 q0 94 -68 140t-168 46q-136 0 -315 -82zM358 0v287h287v-287h-287z" />
<glyph unicode="@" horiz-adv-x="1638" d="M76 715q0 151 60 287t163.5 235.5t251.5 158t317 58.5q102 0 199.5 -22t187.5 -69.5t158.5 -116.5t109 -170.5t40.5 -223.5q0 -119 -41 -219.5t-101.5 -163t-133.5 -106.5t-134 -62t-106 -18q-46 0 -78 27.5t-33 78.5h-4q-95 -106 -207 -106q-130 0 -223.5 96t-93.5 242 q0 203 123.5 348t297.5 145q151 0 238 -131l25 98h172l-113 -497q-14 -54 -14 -70q0 -31 30 -31q88 0 160 94t72 269q0 96 -32.5 171.5t-84 121t-123.5 75.5t-142.5 41t-148.5 11q-125 0 -234 -45.5t-184 -121t-118 -176t-43 -208.5q0 -238 150 -394.5t380 -156.5 q320 0 473 129h174q-217 -318 -647 -318q-109 0 -214 29t-201 90t-169 146.5t-116 208.5t-43 266zM621 651q0 -74 41.5 -121t111.5 -47q95 0 161 83t66 184q0 73 -41.5 118t-109.5 45q-97 0 -163 -82t-66 -180z" />
<glyph unicode="A" horiz-adv-x="1478" d="M18 0l557 1430h324l561 -1430h-317l-123 328h-580l-125 -328h-297zM522 553h418l-207 590h-4z" />
<glyph unicode="B" horiz-adv-x="1251" d="M166 0v1430h500q62 0 119 -7.5t121.5 -32t111 -63t77.5 -106.5t31 -158q0 -126 -77.5 -211t-206.5 -109v-4q146 -14 236.5 -103.5t90.5 -221.5q0 -74 -18.5 -136t-49 -104t-74 -74t-87.5 -50.5t-95.5 -30t-93.5 -15.5t-85 -4h-500zM453 225h135q56 0 103 8.5t93 28.5 t72.5 61.5t26.5 100.5q0 54 -17.5 93.5t-44.5 62.5t-68 36.5t-79 18t-86 4.5h-135v-414zM453 852h116q271 0 271 174q0 48 -17 82t-42 52.5t-65 28.5t-73 12.5t-80 2.5h-110v-352z" />
<glyph unicode="C" horiz-adv-x="1251" d="M96 690q0 364 209 564t576 200q173 0 323 -59l-20 -242q-136 76 -310 76q-217 0 -348 -147t-131 -371q0 -146 57 -261t168.5 -182t260.5 -67q86 0 174 16.5t139 42.5l12 -240q-187 -45 -325 -45q-176 0 -318.5 44.5t-247.5 131.5t-162 224t-57 315z" />
<glyph unicode="D" horiz-adv-x="1478" d="M166 0v1430h391q825 0 825 -715t-825 -715h-391zM453 225h159q91 0 175 33.5t150.5 94.5t106 155t39.5 207t-39.5 207t-106 154.5t-150.5 94t-175 33.5h-159v-979z" />
<glyph unicode="E" d="M166 0v1430h844v-226h-557v-352h510v-225h-510v-402h561v-225h-848z" />
<glyph unicode="F" horiz-adv-x="1024" d="M166 0v1430h795v-226h-508v-352h483v-225h-483v-627h-287z" />
<glyph unicode="G" horiz-adv-x="1478" d="M96 690q0 364 209 564t576 200q223 0 419 -59l-18 -242q-80 37 -179.5 56.5t-189.5 19.5q-243 0 -380.5 -145.5t-137.5 -372.5q0 -146 57 -261t168.5 -182t260.5 -67q106 0 188 20v373h-303v225h577v-770q-274 -74 -462 -74q-176 0 -318.5 44.5t-247.5 131.5t-162 224 t-57 315z" />
<glyph unicode="H" horiz-adv-x="1478" d="M166 0v1430h287v-578h573v578h287v-1430h-287v627h-573v-627h-287z" />
<glyph unicode="I" horiz-adv-x="569" d="M141 0v1430h287v-1430h-287z" />
<glyph unicode="J" horiz-adv-x="796" d="M45 2v248q70 -25 137 -25q39 0 69 9t49.5 22.5t33 36.5t20.5 41.5t10.5 48.5t4 47t0.5 47v953h286v-1090q0 -48 -12 -96.5t-41.5 -97.5t-73 -86.5t-112 -61t-152.5 -23.5q-111 0 -219 27z" />
<glyph unicode="K" horiz-adv-x="1366" d="M166 0v1430h287v-615l516 615h352l-588 -674l613 -756h-375l-514 664h-4v-664h-287z" />
<glyph unicode="L" horiz-adv-x="1024" d="M166 0v1430h287v-1205h555v-225h-842z" />
<glyph unicode="M" horiz-adv-x="1933" d="M166 0v1430h459l340 -1084h4l340 1084h458v-1430h-274v1180h-4l-385 -1180h-275l-385 1180l-4 -4v-1176h-274z" />
<glyph unicode="N" horiz-adv-x="1478" d="M152 0v1430h352l545 -1070h4v1070h274v-1430h-350l-547 1069h-4v-1069h-274z" />
<glyph unicode="O" horiz-adv-x="1593" d="M96 719q0 220 79.5 384.5t239 257.5t382.5 93q220 0 379.5 -94t240 -259t80.5 -382q0 -218 -79.5 -384.5t-239.5 -263t-381 -96.5q-225 0 -384.5 95.5t-238 261.5t-78.5 387zM395 719q0 -80 13.5 -153t44 -140.5t76 -116.5t114.5 -78.5t154 -29.5t154 29.5t114 78.5 t75.5 116.5t44 140.5t13.5 153q0 78 -14 150t-45.5 138t-77 115t-113.5 78t-151 29t-151 -29t-114 -78t-77.5 -115t-45.5 -138t-14 -150z" />
<glyph unicode="P" d="M141 0v1430h363q99 0 182 -12t161.5 -42.5t133 -78t87 -124.5t32.5 -176q0 -98 -28 -175.5t-77 -129t-119.5 -85.5t-151 -49t-175.5 -15h-121v-543h-287zM428 768h100q57 0 103.5 10.5t86 33.5t61.5 66t22 103q0 117 -76 170t-197 53h-100v-436z" />
<glyph unicode="Q" horiz-adv-x="1593" d="M96 719q0 220 79.5 384.5t239 257.5t382.5 93q220 0 379.5 -94t240 -259t80.5 -382q0 -234 -92.5 -409t-267.5 -259l323 -321h-346l-250 250q-25 -5 -67 -5q-225 0 -384.5 95.5t-238 261.5t-78.5 387zM395 719q0 -80 13.5 -153t44 -140.5t76 -116.5t114.5 -78.5 t154 -29.5t154 29.5t114 78.5t75.5 116.5t44 140.5t13.5 153q0 78 -14 150t-45.5 138t-77 115t-113.5 78t-151 29t-151 -29t-114 -78t-77.5 -115t-45.5 -138t-14 -150z" />
<glyph unicode="R" horiz-adv-x="1251" d="M141 0v1430h310q227 0 322 -14q236 -35 311 -183q40 -79 40 -191q0 -128 -80.5 -220.5t-214.5 -110.5v-4q52 -4 88 -45t64 -103l229 -559h-319l-172 446q-32 84 -72 116t-127 32h-92v-594h-287zM428 819h94q49 0 86.5 3.5t80.5 15.5t71 33t46.5 58.5t18.5 88.5 q0 50 -18.5 85.5t-46 54.5t-71 30t-80 13.5t-87.5 2.5h-94v-385z" />
<glyph unicode="S" d="M119 1018q0 115 42 202t114 136.5t158 73.5t185 24q191 0 343 -51l-27 -236q-143 62 -291 62q-40 0 -77 -9.5t-71.5 -31t-55.5 -62t-21 -96.5q0 -39 21.5 -70.5t57.5 -53t83 -41t99 -39.5t104 -43t99 -56.5t83 -75.5t57.5 -104t21.5 -139q0 -91 -28 -164.5t-77 -123 t-117.5 -83t-146.5 -48t-167 -14.5q-26 0 -48 0.5t-46 3t-38 3t-40 5.5t-34.5 6t-38.5 8t-35.5 8.5t-42.5 10.5t-44 11l27 258q163 -88 324 -88q59 0 114.5 18t97 61.5t41.5 104.5q0 43 -21.5 77.5t-57.5 58t-83 44t-99 41t-104 43.5t-99 55.5t-83 74t-57.5 102.5t-21.5 137 z" />
<glyph unicode="T" d="M16 1204v226h1106v-226h-409v-1204h-287v1204h-410z" />
<glyph unicode="U" horiz-adv-x="1478" d="M156 516v914h286v-826q0 -194 70 -298.5t227 -104.5t227 104.5t70 298.5v826h287v-914q0 -541 -584 -541q-583 0 -583 541z" />
<glyph unicode="V" horiz-adv-x="1366" d="M20 1430h308l366 -1123h4l363 1123h285l-482 -1430h-352z" />
<glyph unicode="W" horiz-adv-x="2048" d="M20 1430h302l266 -1143h4l244 1143h389l252 -1143h4l268 1143h279l-373 -1430h-369l-258 1143h-4l-254 -1143h-371z" />
<glyph unicode="X" horiz-adv-x="1366" d="M20 0l469 743l-426 687h332l299 -510l305 510h308l-430 -687l469 -743h-338l-330 557l-334 -557h-324z" />
<glyph unicode="Y" horiz-adv-x="1366" d="M23 1430h335l338 -601l344 601h303l-512 -865v-565h-286v565z" />
<glyph unicode="Z" d="M74 0v233l671 971h-645v226h951v-234l-678 -971h692v-225h-991z" />
<glyph unicode="[" horiz-adv-x="681" d="M147 -287v1835h459v-200h-196v-1434h196v-201h-459z" />
<glyph unicode="\" horiz-adv-x="796" d="M41 1454h213l500 -1479h-213z" />
<glyph unicode="]" horiz-adv-x="681" d="M76 -86h196v1434h-196v200h459v-1835h-459v201z" />
<glyph unicode="^" horiz-adv-x="1228" d="M135 641l383 789h193l383 -789h-213l-267 573l-266 -573h-213z" />
<glyph unicode="_" horiz-adv-x="1024" d="M0 -154h1024v-102h-1024v102z" />
<glyph unicode="`" horiz-adv-x="569" d="M59 1497h281l170 -299h-170z" />
<glyph unicode="a" d="M74 289q0 213 180 301q124 61 354 61h152q0 125 -56.5 176.5t-181.5 51.5q-174 0 -325 -115l-9 235q79 37 179 58.5t188 21.5q241 0 348 -105t107 -339v-135q0 -108 4 -264q3 -109 12 -236h-242q-4 20 -12 158h-4q-46 -85 -137 -134t-189 -49q-95 0 -177.5 35.5 t-136.5 109t-54 169.5zM336 305q0 -64 48 -96.5t126 -32.5q121 0 192 94q58 76 58 217h-119q-305 0 -305 -182z" />
<glyph unicode="b" horiz-adv-x="1251" d="M141 0v1536h275v-616h4q121 159 315 159q95 0 170.5 -29.5t126 -80t84 -121t48 -149.5t14.5 -169q0 -113 -24.5 -209.5t-75 -175.5t-138.5 -124.5t-205 -45.5q-96 0 -181.5 37t-141.5 117h-4v-129h-267zM418 530q0 -47 7.5 -93t25.5 -92t44.5 -80t69 -55.5t94.5 -21.5 q64 0 111.5 32t72.5 85t36.5 109.5t11.5 115.5q0 58 -11 113t-35 107t-71 84t-110 32t-112 -31.5t-77.5 -82t-42.5 -107.5t-14 -115z" />
<glyph unicode="c" horiz-adv-x="909" d="M74 532q0 115 34 214t97 173.5t160.5 117t218.5 42.5q150 0 266 -35l-25 -217q-83 39 -186 39q-127 0 -203 -92t-76 -242q0 -153 73 -248.5t212 -95.5q93 0 211 50l12 -228q-112 -35 -274 -35q-169 0 -287.5 73t-175.5 196.5t-57 287.5z" />
<glyph unicode="d" horiz-adv-x="1251" d="M74 530q0 90 14.5 169t48 149.5t83.5 121t125.5 80t170.5 29.5q102 0 177.5 -35.5t137.5 -111.5h5v604h274v-1536h-266v119h-4q-116 -144 -324 -144q-94 0 -170 30t-126 81.5t-83.5 123.5t-48 151t-14.5 169zM360 530q0 -59 11.5 -115.5t36.5 -109.5t72.5 -85t111.5 -32 q65 0 114 31.5t75.5 84t39.5 109.5t13 117q0 58 -14 115t-42.5 107.5t-77.5 82t-112 31.5t-110 -32t-71.5 -84t-35.5 -107t-11 -113z" />
<glyph unicode="e" d="M74 522q0 116 31 216t90 176.5t153.5 120.5t214.5 44q115 0 202.5 -31.5t143.5 -86t91.5 -136.5t50 -174.5t14.5 -208.5h-729q9 -126 90.5 -196t210.5 -70q159 0 350 107v-224q-153 -84 -362 -84q-261 0 -406 144t-145 403zM336 631h467q-7 110 -61 179t-162 69 q-111 0 -173 -68t-71 -180z" />
<glyph unicode="f" horiz-adv-x="796" d="M39 854v201h203v147q0 162 88.5 260.5t247.5 98.5q98 0 200 -23l-22 -227q-1 1 -8.5 5t-10 5.5t-10 5.5t-12 5.5t-12.5 4.5t-14.5 4.5t-15 3.5t-17.5 2.5t-19 0.5q-64 0 -92.5 -46t-28.5 -116v-131h240v-201h-240v-854h-274v854h-203z" />
<glyph unicode="g" horiz-adv-x="1251" d="M74 532q0 79 16 155t51 147.5t85.5 125.5t126.5 86.5t167 32.5q218 0 324 -168h4v144h262v-953q0 -91 -15 -168.5t-54 -151t-100.5 -124.5t-160.5 -82t-227 -31q-194 0 -365 72l23 233q68 -36 157 -64t150 -28q63 0 113 14t83 35t56.5 55.5t36 67t19.5 78.5t8.5 79.5 t1.5 80.5h-5q-41 -72 -129 -120t-198 -48q-91 0 -164 28.5t-122 77t-82 117t-47.5 145.5t-14.5 164zM360 532q0 -76 24.5 -146.5t79.5 -121.5t130 -51q62 0 110 26t76 71.5t42 103t14 125.5q0 144 -58 235.5t-172 91.5q-67 0 -116.5 -29t-76.5 -78t-40 -105.5t-13 -121.5z " />
<glyph unicode="h" horiz-adv-x="1251" d="M141 0v1536h275v-625h4q54 78 140.5 123t191.5 45q180 0 269 -112.5t89 -300.5v-666h-274v563q0 42 -1 68t-6 67t-16.5 66t-30.5 51t-51 38.5t-74 12.5q-70 0 -120.5 -34.5t-75 -91t-35 -111.5t-10.5 -113v-516h-275z" />
<glyph unicode="i" horiz-adv-x="569" d="M147 0v1055h275v-1055h-275zM147 1247v262h275v-262h-275z" />
<glyph unicode="j" horiz-adv-x="569" d="M-31 -438l11 196q58 3 88.5 11t49.5 31.5t24 58t5 100.5v1096h275v-1133q0 -51 -6.5 -97.5t-27 -99.5t-54 -91t-92.5 -63.5t-138 -25.5q-75 0 -135 17zM147 1247v262h275v-262h-275z" />
<glyph unicode="k" d="M147 0v1536h275v-903h4l328 422h323l-393 -471l442 -584h-348l-352 512h-4v-512h-275z" />
<glyph unicode="l" horiz-adv-x="569" d="M147 0v1536h275v-1536h-275z" />
<glyph unicode="m" horiz-adv-x="1820" d="M137 0v1055h256v-148h4q60 90 144 131t170 41q227 0 311 -186q45 91 136 138.5t194 47.5q95 0 161.5 -30.5t103.5 -88.5t53 -129.5t16 -164.5v-666h-275v629q0 29 -0.5 44.5t-3.5 44.5t-8.5 46t-17 39t-28 34t-42 20.5t-58.5 8.5q-204 0 -204 -354v-512h-275v629 q0 29 -0.5 44.5t-3.5 44.5t-8.5 46t-17 39t-28 34t-42 20.5t-58.5 8.5q-204 0 -204 -354v-512h-275z" />
<glyph unicode="n" horiz-adv-x="1251" d="M141 0v1055h260v-144h5q119 168 346 168q180 0 269 -112.5t89 -300.5v-666h-274v563q0 42 -1 68t-6 67t-16.5 66t-30.5 51t-51 38.5t-74 12.5q-70 0 -120.5 -34.5t-75 -91t-35 -111.5t-10.5 -113v-516h-275z" />
<glyph unicode="o" horiz-adv-x="1251" d="M74 520q0 255 156 407t395 152q240 0 396.5 -152t156.5 -407q0 -114 -37.5 -213t-107 -173t-175 -116.5t-233.5 -42.5q-169 0 -296 73.5t-191 196t-64 275.5zM360 553q0 -56 7.5 -105.5t26 -98t47.5 -83.5t76.5 -56.5t107.5 -21.5q76 0 130 31.5t82.5 86t41 115 t12.5 132.5q0 84 -28 153.5t-90 114.5t-148 45q-126 0 -195.5 -92.5t-69.5 -220.5z" />
<glyph unicode="p" horiz-adv-x="1251" d="M141 -430v1485h262v-150h5q104 174 327 174q95 0 170.5 -29.5t126 -80t84 -121t48 -149.5t14.5 -169q0 -113 -24.5 -209.5t-75.5 -175.5t-140.5 -124.5t-208.5 -45.5q-95 0 -168 31.5t-141 114.5h-4v-551h-275zM418 530q0 -47 7.5 -93t25.5 -92t44.5 -80t69 -55.5 t94.5 -21.5q64 0 111.5 32t72.5 85t36.5 109.5t11.5 115.5q0 58 -11 113t-35 107t-71 84t-110 32t-112 -31.5t-77.5 -82t-42.5 -107.5t-14 -115z" />
<glyph unicode="q" horiz-adv-x="1251" d="M74 530q0 90 14.5 169t48.5 149.5t84.5 121t127.5 80t173 29.5q217 0 322 -174h4v150h262v-1485h-274v551h-5q-68 -83 -141 -114.5t-168 -31.5q-96 0 -173 30t-127.5 81.5t-84.5 123.5t-48.5 151t-14.5 169zM360 530q0 -59 11.5 -115.5t36.5 -109.5t72.5 -85t111.5 -32 q65 0 114 31.5t75.5 84t39.5 109.5t13 117q0 58 -14 115t-42.5 107.5t-77.5 82t-112 31.5t-110 -32t-71.5 -84t-35.5 -107t-11 -113z" />
<glyph unicode="r" horiz-adv-x="796" d="M147 0v1055h244v-240h4q11 86 94 175t195 89q55 0 84 -8v-276q-39 22 -123 22q-41 0 -74 -11.5t-55.5 -35t-39 -48.5t-26.5 -64t-16 -67.5t-8.5 -73t-3 -67.5t-0.5 -63v-387h-275z" />
<glyph unicode="s" horiz-adv-x="909" d="M74 752q0 82 34 146.5t92.5 103t131 58t155.5 19.5q27 0 51.5 -1t50.5 -4t41.5 -4.5t43.5 -7t36 -7t40.5 -8t35.5 -7.5l-18 -206q-130 45 -246 45q-41 0 -75.5 -10t-60.5 -37.5t-26 -69.5q0 -34 26.5 -57t68.5 -38t93 -29.5t102 -37.5t93 -55.5t68.5 -90.5t26.5 -135 q0 -89 -37.5 -157t-101 -108t-140.5 -59.5t-164 -19.5q-144 0 -311 45l16 226q140 -70 271 -70q29 0 58 6t57.5 19.5t46.5 40.5t18 63q0 42 -26.5 69.5t-68.5 43.5t-93 29.5t-101.5 34t-92.5 51t-68.5 86.5t-26.5 133z" />
<glyph unicode="t" horiz-adv-x="796" d="M29 854v201h202v211l275 88v-299h244v-201h-244v-492q0 -174 129 -174q78 0 125 29l8 -217q-89 -25 -203 -25q-159 0 -246.5 91.5t-87.5 250.5v537h-202z" />
<glyph unicode="u" horiz-adv-x="1251" d="M141 389v666h275v-563q0 -36 0.5 -58t4 -58t10 -58.5t19.5 -50t31.5 -42.5t47 -26t65.5 -11q57 0 101.5 24t70 60.5t42 85t22.5 92.5t6 89v516h274v-1055h-260v143h-4q-138 -168 -346 -168q-180 0 -269.5 113t-89.5 301z" />
<glyph unicode="v" d="M25 1055h294l263 -768h4l254 768h274l-389 -1055h-309z" />
<glyph unicode="w" horiz-adv-x="1820" d="M23 1055h290l234 -781h4l213 781h319l230 -781h4l219 781h262l-323 -1055h-324l-229 805h-4l-226 -805h-313z" />
<glyph unicode="x" d="M18 0l363 553l-326 502h324l207 -344l202 344h291l-315 -502l356 -553h-327l-236 393l-238 -393h-301z" />
<glyph unicode="y" d="M23 1055h303l254 -770h4l254 770h278l-395 -1047q-66 -174 -84 -212q-71 -155 -175 -210q-75 -41 -179 -41q-93 0 -195 29l18 203q55 -19 142 -19q82 0 130 51.5t48 137.5z" />
<glyph unicode="z" horiz-adv-x="1024" d="M74 0v223l534 619h-512v213h836v-226l-524 -616h542v-213h-876z" />
<glyph unicode="{" horiz-adv-x="681" d="M37 543v176q68 0 118 45.5t50 144.5v363q0 68 26.5 122.5t70.5 87t96.5 49.5t109.5 17h154v-164h-93q-63 0 -82.5 -35.5t-19.5 -113.5v-354q0 -68 -22.5 -118t-60 -76t-72.5 -38t-74 -16v-4q32 -3 58 -9t60 -23.5t56.5 -44t38.5 -74.5t16 -111v-340q0 -79 19.5 -114.5 t82.5 -35.5h93v-164h-154q-126 0 -214.5 72.5t-88.5 204.5v348q0 108 -50 156.5t-118 48.5z" />
<glyph unicode="|" horiz-adv-x="454" d="M121 -512v2048h213v-2048h-213z" />
<glyph unicode="}" horiz-adv-x="681" d="M20 -123h93q63 0 82.5 35.5t19.5 114.5v340q0 63 16 111t38.5 74.5t56.5 44t60 23.5t58 9v4q-39 4 -74 16t-72.5 38t-60 76t-22.5 118v354q0 78 -19.5 113.5t-82.5 35.5h-93v164h154q127 0 215 -71t88 -205v-363q0 -99 50 -144.5t118 -45.5v-176q-68 0 -118 -48.5 t-50 -156.5v-348q0 -91 -44 -155.5t-111 -93t-148 -28.5h-154v164z" />
<glyph unicode="~" horiz-adv-x="1228" d="M141 516q94 180 248 180q70 0 123.5 -18t116.5 -51q7 -4 34.5 -17.5t37.5 -18t33 -14t37.5 -13.5t34.5 -7.5t38 -3.5q26 0 49.5 11.5t46 36t37 44.5t37.5 55l73 -180q-107 -180 -235 -180q-45 0 -90.5 11.5t-73.5 24t-74 36.5q-47 25 -71.5 36.5t-67 23t-84.5 11.5 q-64 0 -105 -40.5t-71 -106.5z" />
<glyph unicode="&#xa1;" horiz-adv-x="796" d="M240 -375l43 1010h227l45 -1010h-315zM252 768v287h287v-287h-287z" />
<glyph unicode="&#xa2;" d="M176 532q0 115 34 214t97 173.5t160.5 117t218.5 42.5q57 0 82 -4l53 170h119l-57 -186q17 -1 69 -15l-24 -217q-57 26 -107 33l-198 -645q53 -27 125 -27q92 0 210 50l13 -228q-112 -35 -275 -35q-79 0 -143 17l-55 -176h-119l65 213q-131 65 -199.5 196.5t-68.5 306.5z M463 532q0 -147 65 -235l174 569q-109 -13 -174 -105t-65 -229z" />
<glyph unicode="&#xa3;" d="M111 0v213h180v449h-156v163h156v172q0 134 66 239t177.5 161.5t247.5 56.5q151 0 267 -35l-15 -225q-4 1 -28.5 8t-32 8.5t-29 6.5t-35 6.5t-33.5 3.5t-40 2q-127 0 -192.5 -77t-65.5 -189v-138h301v-163h-301v-449h456v-213h-923z" />
<glyph unicode="&#xa4;" d="M37 307l119 119q-95 136 -95 293q0 156 95 293l-119 118l121 121l118 -118q131 94 293 94q157 0 293 -94l119 118l121 -121l-119 -118q94 -133 94 -291q0 -156 -94 -295l119 -119l-121 -121l-119 119q-136 -94 -293 -94t-293 94l-118 -119zM287 719q0 -122 82.5 -208.5 t199.5 -86.5t200 86.5t83 208.5t-83 208.5t-200 86.5t-199.5 -86.5t-82.5 -208.5z" />
<glyph unicode="&#xa5;" d="M-20 1430h288l310 -631l315 631h268l-354 -674h201v-164h-287l-14 -27v-100h301v-164h-301v-301h-275v301h-301v164h301v100l-16 27h-285v164h205z" />
<glyph unicode="&#xa6;" horiz-adv-x="454" d="M121 358h213v-716h-213v716zM121 666v716h213v-716h-213z" />
<glyph unicode="&#xa7;" d="M135 584q0 183 158 276q-73 50 -108 106.5t-35 137.5q0 87 39.5 156t104.5 110t142 62.5t160 21.5q105 0 328 -41l-23 -223q-134 51 -293 51q-196 0 -196 -139q-1 -38 23.5 -68t66 -49.5t95 -40t109.5 -38.5t110 -46.5t96 -62.5t68 -88t26 -121q0 -82 -40.5 -152.5 t-111.5 -109.5q65 -38 102 -100.5t37 -133.5q0 -88 -39.5 -160.5t-104 -117.5t-144.5 -69t-164 -24q-137 0 -379 60l18 233q193 -80 344 -80q207 0 207 142q0 42 -33 74.5t-85.5 55.5t-116 44.5t-127 49.5t-116 63t-85.5 91.5t-33 129.5zM348 633q0 -46 45 -85.5 t100.5 -61.5t126 -49.5t99.5 -45.5q74 64 74 154q0 41 -21.5 71.5t-62.5 52t-83 37t-102.5 37t-101.5 41.5q-30 -22 -52 -63t-22 -88z" />
<glyph unicode="&#xa8;" horiz-adv-x="569" d="M-45 1247v238h238v-238h-238zM377 1247v238h237v-238h-237z" />
<glyph unicode="&#xa9;" horiz-adv-x="1638" d="M80 715q0 150 58.5 287t157.5 236t236 157.5t287 58.5t287 -58.5t236.5 -157.5t158 -236t58.5 -287t-58.5 -287t-158 -236.5t-236.5 -158t-287 -58.5t-287 58.5t-236 158t-157.5 236.5t-58.5 287zM293 715q0 -168 69.5 -300t189 -204t267.5 -72q146 0 266 72t190.5 204.5 t70.5 299.5q0 251 -152 413t-375 162q-225 0 -375.5 -161.5t-150.5 -413.5zM430 721q0 191 112 313.5t302 122.5q141 0 238 -80t118 -227h-164q-13 69 -65.5 106t-126.5 37q-101 0 -157 -73.5t-56 -196.5q0 -116 60.5 -195t156.5 -79q78 0 129.5 38.5t58.5 108.5h170 q-23 -146 -122 -228.5t-236 -82.5q-187 0 -302.5 124t-115.5 312z" />
<glyph unicode="&#xaa;" horiz-adv-x="739" d="M57 967q0 49 15 87.5t44 63t62 41t77.5 24t82 10.5t82.5 3h76q0 77 -37.5 106t-112.5 29q-113 0 -215 -63v135q99 51 246 51q155 0 225 -63.5t70 -214.5q0 -234 10 -373h-172l-6 86h-4q-44 -103 -193 -103q-61 0 -115 16.5t-94.5 59.5t-40.5 105zM233 977q0 -36 34 -52 t73 -16q74 0 116 50.5t42 125.5h-62q-28 0 -43 -0.5t-43.5 -3t-45 -9.5t-35 -18.5t-27.5 -31t-9 -45.5z" />
<glyph unicode="&#xab;" d="M100 551l242 420h258l-225 -420l225 -420h-258zM557 551l242 420h258l-226 -420l226 -420h-258z" />
<glyph unicode="&#xac;" horiz-adv-x="1228" d="M94 635v213h1041v-627h-213v414h-828z" />
<glyph unicode="&#xad;" horiz-adv-x="681" d="M72 438v226h538v-226h-538z" />
<glyph unicode="&#xae;" horiz-adv-x="1638" d="M80 715q0 150 58.5 287t157.5 236t236 157.5t287 58.5t287 -58.5t236.5 -157.5t158 -236t58.5 -287t-58.5 -287t-158 -236.5t-236.5 -158t-287 -58.5t-287 58.5t-236 158t-157.5 236.5t-58.5 287zM293 715q0 -168 69.5 -300t189 -204t267.5 -72q146 0 266 72t190.5 204.5 t70.5 299.5q0 251 -152 413t-375 162q-225 0 -375.5 -161.5t-150.5 -413.5zM522 307v821h309q164 0 246 -56t82 -189q0 -202 -217 -219l217 -357h-180l-197 348h-84v-348h-176zM698 791h144q72 0 106.5 21.5t34.5 86.5q0 94 -160 94h-125v-202z" />
<glyph unicode="&#xaf;" horiz-adv-x="569" d="M-10 1266v164h590v-164h-590z" />
<glyph unicode="&#xb0;" horiz-adv-x="819" d="M80 1124q0 136 97 233t233 97t232.5 -96.5t96.5 -233.5q0 -140 -94.5 -234.5t-234.5 -94.5q-143 0 -236.5 93.5t-93.5 235.5zM229 1124q0 -79 50.5 -129.5t130.5 -50.5t130 50t50 130t-50.5 130.5t-129.5 50.5q-80 0 -130.5 -50.5t-50.5 -130.5z" />
<glyph unicode="&#xb1;" horiz-adv-x="1228" d="M94 0v213h1041v-213h-1041zM94 553v213h414v270h213v-270h414v-213h-414v-272h-213v272h-414z" />
<glyph unicode="&#xb2;" horiz-adv-x="739" d="M61 578v167q32 11 96.5 62t125.5 115q155 166 155 249q0 51 -32 79t-93 28q-117 0 -215 -70l-14 178q127 68 276 68q141 0 228.5 -64.5t87.5 -199.5q0 -114 -125 -256q-54 -60 -114.5 -107.5t-106.5 -68.5v-4h350v-176h-619z" />
<glyph unicode="&#xb3;" horiz-adv-x="739" d="M53 600l10 170q138 -41 222 -41q64 0 114 28t50 77q0 100 -150 100q-74 0 -115 -6v172q18 1 57 -0.5t62 -1.5q32 0 63.5 9.5t57 32.5t25.5 56q0 94 -132 94q-131 0 -223 -53l-10 168q140 49 264 49q42 0 84.5 -6t86.5 -21.5t78 -39t55.5 -60.5t21.5 -84q0 -172 -170 -215 v-4q86 -6 134 -61.5t48 -135.5q0 -56 -23 -101.5t-61 -74.5t-87.5 -49t-100.5 -28.5t-103 -8.5q-126 0 -258 35z" />
<glyph unicode="&#xb4;" horiz-adv-x="569" d="M59 1198l170 299h281l-281 -299h-170z" />
<glyph unicode="&#xb5;" horiz-adv-x="1251" d="M141 -430v1485h275v-563q0 -36 0.5 -58t4 -58t10 -58.5t19.5 -50t31.5 -42.5t47 -26t65.5 -11q57 0 101.5 24t70 60.5t42 85t22.5 92.5t6 89v516h274v-1055h-260v143h-4q-26 -63 -90.5 -115.5t-137.5 -52.5q-64 0 -111 13t-87 57h-4v-475h-275z" />
<glyph unicode="&#xb6;" horiz-adv-x="1269" d="M4 1057q0 105 36 179t104 115.5t154 60t198 18.5h600v-1684h-213v1520h-217v-1520h-213v952q-211 0 -330 97t-119 262z" />
<glyph unicode="&#xb7;" horiz-adv-x="569" d="M127 582q0 69 44 113t114 44t113.5 -44t43.5 -113t-43.5 -113.5t-113.5 -44.5t-114 44.5t-44 113.5z" />
<glyph unicode="&#xb8;" horiz-adv-x="569" d="M154 -412l41 111q6 -2 23.5 -7.5t28 -8.5t27 -7t32.5 -6t32 -2q45 0 76.5 17t31.5 55q0 37 -25.5 55.5t-64.5 18.5q-31 0 -86 -19l-30 53l120 152h129l-94 -109l4 -4q8 1 24.5 5t31 6t28.5 2q66 0 115 -37t49 -105q0 -57 -22.5 -99.5t-60.5 -66.5t-81.5 -35.5 t-91.5 -11.5q-146 0 -237 43z" />
<glyph unicode="&#xb9;" horiz-adv-x="739" d="M25 1237l284 205h193v-864h-213v655l-158 -121z" />
<glyph unicode="&#xba;" horiz-adv-x="813" d="M43 1122q0 149 107.5 240.5t259.5 91.5q151 0 255.5 -92t104.5 -240q0 -153 -103.5 -244.5t-258.5 -91.5t-260 91.5t-105 244.5zM244 1122q0 -213 166 -213q159 0 159 213q0 55 -13.5 99.5t-50 77t-91.5 32.5q-88 0 -129 -58.5t-41 -150.5z" />
<glyph unicode="&#xbb;" d="M82 131l225 420l-225 420h258l242 -420l-242 -420h-258zM539 131l225 420l-225 420h258l241 -420l-241 -420h-258z" />
<glyph unicode="&#xbc;" horiz-adv-x="1708" d="M41 1237l285 205h192v-864h-213v655l-158 -121zM336 -45l854 1520h168l-854 -1520h-168zM932 162v174l368 528h256v-538h99v-164h-99v-162h-213v162h-411zM1106 326h237v350h-4z" />
<glyph unicode="&#xbd;" horiz-adv-x="1708" d="M20 1235l285 207h193v-864h-213v655l-158 -123zM274 -45l854 1520h168l-854 -1520h-168zM1022 0v168q32 11 96 61.5t125 114.5q68 73 112 140.5t44 109.5q0 51 -32 78.5t-93 27.5q-118 0 -215 -69l-15 178q127 68 277 68q141 0 228 -65t87 -200q0 -114 -125 -256 q-54 -60 -114.5 -107.5t-106.5 -68.5v-4h350v-176h-618z" />
<glyph unicode="&#xbe;" horiz-adv-x="1708" d="M29 600l10 170q138 -41 233 -41q64 0 114 28t50 77q0 54 -47 77t-115 23q-74 0 -114 -6v172q18 1 57 -0.5t62 -1.5q61 0 109 25t48 73q0 94 -143 94q-131 0 -223 -53l-11 168q140 49 265 49q54 0 107 -10.5t104 -33.5t82.5 -66t31.5 -101q0 -172 -170 -215v-4 q86 -6 134.5 -61.5t48.5 -135.5q0 -56 -23 -101.5t-61 -74.5t-87.5 -49t-100.5 -28.5t-103 -8.5q-126 0 -258 35zM360 -45l854 1520h168l-854 -1520h-168zM956 162v174l369 528h256v-538h98v-164h-98v-162h-213v162h-412zM1135 326h233v350h-4z" />
<glyph unicode="&#xbf;" horiz-adv-x="1024" d="M49 -33q0 58 20.5 113t53 99t71.5 87t76.5 85.5t68 85t47 94.5t11.5 106h252q0 -91 -23 -167t-52 -121.5t-74 -94.5q-12 -13 -43 -46.5t-44 -49.5t-31.5 -44t-26 -55.5t-7.5 -58.5q0 -50 21 -88t56.5 -58.5t75 -30t83.5 -9.5q161 0 315 82l23 -228q-158 -67 -406 -67 q-74 0 -141 12.5t-127 40.5t-104 70t-69.5 104t-25.5 139zM377 768v287h287v-287h-287z" />
<glyph unicode="&#xc0;" horiz-adv-x="1478" d="M18 0l557 1430h324l561 -1430h-317l-123 328h-580l-125 -328h-297zM457 1821h280l170 -299h-170zM522 553h418l-207 590h-4z" />
<glyph unicode="&#xc1;" horiz-adv-x="1478" d="M18 0l557 1430h324l561 -1430h-317l-123 328h-580l-125 -328h-297zM522 553h418l-207 590h-4zM571 1522l170 299h281l-281 -299h-170z" />
<glyph unicode="&#xc2;" horiz-adv-x="1478" d="M18 0l557 1430h324l561 -1430h-317l-123 328h-580l-125 -328h-297zM416 1522l225 299h207l215 -299h-182l-140 176l-143 -176h-182zM522 553h418l-207 590h-4z" />
<glyph unicode="&#xc3;" horiz-adv-x="1478" d="M18 0l557 1430h324l561 -1430h-317l-123 328h-580l-125 -328h-297zM377 1559q0 96 60.5 171.5t148.5 75.5q57 0 166 -41q13 -5 37 -15t37.5 -15.5t34.5 -10t40 -4.5q44 0 67 28.5t23 72.5h111q0 -107 -53.5 -177.5t-145.5 -70.5q-78 0 -176 37q-99 39 -139 39 q-49 0 -75 -28t-26 -62h-110zM522 553h418l-207 590h-4z" />
<glyph unicode="&#xc4;" horiz-adv-x="1478" d="M18 0l557 1430h324l561 -1430h-317l-123 328h-580l-125 -328h-297zM410 1571v237h237v-237h-237zM522 553h418l-207 590h-4zM831 1571v237h238v-237h-238z" />
<glyph unicode="&#xc5;" horiz-adv-x="1478" d="M18 0l557 1430h324l561 -1430h-317l-123 328h-580l-125 -328h-297zM522 553h418l-207 590h-4zM522 1696q0 89 65 154t154 65q90 0 153.5 -64.5t63.5 -154.5q0 -91 -63 -154t-154 -63q-90 0 -154.5 63.5t-64.5 153.5zM633 1696q0 -44 31.5 -75.5t76.5 -31.5 q44 0 75.5 31.5t31.5 75.5q0 46 -31 77t-76 31q-46 0 -77 -31t-31 -77z" />
<glyph unicode="&#xc6;" horiz-adv-x="1933" d="M18 0l783 1430h1022v-226h-555l28 -352h482v-225h-457l33 -402h477v-225h-756l-24 328h-549l-176 -328h-308zM625 553h405l-47 664h-4z" />
<glyph unicode="&#xc7;" horiz-adv-x="1251" d="M96 690q0 364 209 564t576 200q173 0 323 -59l-20 -242q-136 76 -310 76q-217 0 -348 -147t-131 -371q0 -146 57 -261t168.5 -182t260.5 -67q86 0 174 16.5t139 42.5l12 -240q-187 -45 -325 -45q-21 0 -29 2l-74 -86l4 -4q8 1 24.5 5t31 6t28.5 2q66 0 115 -37t49 -105 q0 -57 -22.5 -99.5t-60.5 -66.5t-81.5 -35.5t-91.5 -11.5q-146 0 -237 43l41 111q6 -2 23.5 -7.5t28 -8.5t27 -7t32.5 -6t32 -2q45 0 76.5 17t31.5 55q0 37 -25.5 55.5t-64.5 18.5q-31 0 -86 -19l-30 53l110 140q-145 16 -261.5 67t-200.5 137.5t-129.5 213t-45.5 284.5z " />
<glyph unicode="&#xc8;" d="M166 0v1430h844v-226h-557v-352h510v-225h-510v-402h561v-225h-848zM287 1821h280l170 -299h-170z" />
<glyph unicode="&#xc9;" d="M166 0v1430h844v-226h-557v-352h510v-225h-510v-402h561v-225h-848zM401 1522l170 299h281l-281 -299h-170z" />
<glyph unicode="&#xca;" d="M166 0v1430h844v-226h-557v-352h510v-225h-510v-402h561v-225h-848zM246 1522l225 299h207l215 -299h-182l-140 176l-143 -176h-182z" />
<glyph unicode="&#xcb;" d="M166 0v1430h844v-226h-557v-352h510v-225h-510v-402h561v-225h-848zM240 1571v237h237v-237h-237zM662 1571v237h237v-237h-237z" />
<glyph unicode="&#xcc;" horiz-adv-x="569" d="M2 1821h281l170 -299h-170zM141 0v1430h287v-1430h-287z" />
<glyph unicode="&#xcd;" horiz-adv-x="569" d="M117 1522l170 299h280l-280 -299h-170zM141 0v1430h287v-1430h-287z" />
<glyph unicode="&#xce;" horiz-adv-x="569" d="M-39 1522l225 299h207l215 -299h-182l-139 176l-144 -176h-182zM141 0v1430h287v-1430h-287z" />
<glyph unicode="&#xcf;" horiz-adv-x="569" d="M-45 1571v237h238v-237h-238zM141 0v1430h287v-1430h-287zM377 1571v237h237v-237h-237z" />
<glyph unicode="&#xd0;" horiz-adv-x="1478" d="M35 688v176h131v566h391q825 0 825 -715t-825 -715h-391v688h-131zM453 225h159q91 0 175 33.5t150.5 94.5t106 155t39.5 207t-39.5 207t-106 154.5t-150.5 94t-175 33.5h-159v-340h299v-176h-299v-463z" />
<glyph unicode="&#xd1;" horiz-adv-x="1478" d="M152 0v1430h352l545 -1070h4v1070h274v-1430h-350l-547 1069h-4v-1069h-274zM377 1559q0 96 60.5 171.5t148.5 75.5q57 0 166 -41q13 -5 37 -15t37.5 -15.5t34.5 -10t40 -4.5q44 0 67 28.5t23 72.5h111q0 -107 -53.5 -177.5t-145.5 -70.5q-78 0 -176 37q-99 39 -139 39 q-49 0 -75 -28t-26 -62h-110z" />
<glyph unicode="&#xd2;" horiz-adv-x="1593" d="M96 719q0 220 79.5 384.5t239 257.5t382.5 93q220 0 379.5 -94t240 -259t80.5 -382q0 -218 -79.5 -384.5t-239.5 -263t-381 -96.5q-225 0 -384.5 95.5t-238 261.5t-78.5 387zM395 719q0 -80 13.5 -153t44 -140.5t76 -116.5t114.5 -78.5t154 -29.5t154 29.5t114 78.5 t75.5 116.5t44 140.5t13.5 153q0 78 -14 150t-45.5 138t-77 115t-113.5 78t-151 29t-151 -29t-114 -78t-77.5 -115t-45.5 -138t-14 -150zM514 1821h281l170 -299h-170z" />
<glyph unicode="&#xd3;" horiz-adv-x="1593" d="M96 719q0 220 79.5 384.5t239 257.5t382.5 93q220 0 379.5 -94t240 -259t80.5 -382q0 -218 -79.5 -384.5t-239.5 -263t-381 -96.5q-225 0 -384.5 95.5t-238 261.5t-78.5 387zM395 719q0 -80 13.5 -153t44 -140.5t76 -116.5t114.5 -78.5t154 -29.5t154 29.5t114 78.5 t75.5 116.5t44 140.5t13.5 153q0 78 -14 150t-45.5 138t-77 115t-113.5 78t-151 29t-151 -29t-114 -78t-77.5 -115t-45.5 -138t-14 -150zM629 1522l170 299h280l-280 -299h-170z" />
<glyph unicode="&#xd4;" horiz-adv-x="1593" d="M96 719q0 220 79.5 384.5t239 257.5t382.5 93q220 0 379.5 -94t240 -259t80.5 -382q0 -218 -79.5 -384.5t-239.5 -263t-381 -96.5q-225 0 -384.5 95.5t-238 261.5t-78.5 387zM395 719q0 -80 13.5 -153t44 -140.5t76 -116.5t114.5 -78.5t154 -29.5t154 29.5t114 78.5 t75.5 116.5t44 140.5t13.5 153q0 78 -14 150t-45.5 138t-77 115t-113.5 78t-151 29t-151 -29t-114 -78t-77.5 -115t-45.5 -138t-14 -150zM473 1522l225 299h207l215 -299h-182l-139 176l-144 -176h-182z" />
<glyph unicode="&#xd5;" horiz-adv-x="1593" d="M96 719q0 220 79.5 384.5t239 257.5t382.5 93q220 0 379.5 -94t240 -259t80.5 -382q0 -218 -79.5 -384.5t-239.5 -263t-381 -96.5q-225 0 -384.5 95.5t-238 261.5t-78.5 387zM395 719q0 -80 13.5 -153t44 -140.5t76 -116.5t114.5 -78.5t154 -29.5t154 29.5t114 78.5 t75.5 116.5t44 140.5t13.5 153q0 78 -14 150t-45.5 138t-77 115t-113.5 78t-151 29t-151 -29t-114 -78t-77.5 -115t-45.5 -138t-14 -150zM434 1559q0 96 60.5 171.5t148.5 75.5q57 0 166 -41q13 -5 37 -15t37.5 -15.5t34.5 -10t40 -4.5q44 0 67.5 28.5t23.5 72.5h110 q0 -107 -53 -177.5t-145 -70.5q-79 0 -177 37q-99 39 -139 39q-49 0 -74.5 -28t-25.5 -62h-111z" />
<glyph unicode="&#xd6;" horiz-adv-x="1593" d="M96 719q0 220 79.5 384.5t239 257.5t382.5 93q220 0 379.5 -94t240 -259t80.5 -382q0 -218 -79.5 -384.5t-239.5 -263t-381 -96.5q-225 0 -384.5 95.5t-238 261.5t-78.5 387zM395 719q0 -80 13.5 -153t44 -140.5t76 -116.5t114.5 -78.5t154 -29.5t154 29.5t114 78.5 t75.5 116.5t44 140.5t13.5 153q0 78 -14 150t-45.5 138t-77 115t-113.5 78t-151 29t-151 -29t-114 -78t-77.5 -115t-45.5 -138t-14 -150zM467 1571v237h238v-237h-238zM889 1571v237h237v-237h-237z" />
<glyph unicode="&#xd7;" horiz-adv-x="1228" d="M135 186l332 332l-332 332l148 147l331 -331l332 331l148 -147l-334 -332l334 -332l-148 -147l-332 334l-331 -334z" />
<glyph unicode="&#xd8;" horiz-adv-x="1593" d="M96 719q0 220 79.5 384.5t239 257.5t382.5 93q237 0 405 -108l111 143l92 -76l-111 -143q99 -98 151 -239t52 -312q0 -218 -79.5 -384.5t-239.5 -263t-381 -96.5q-250 0 -418 117l-117 -151l-92 73l121 156q-195 192 -195 549zM395 719q0 -190 72 -322l575 742 q-100 90 -245 90q-83 0 -151 -29t-114 -78t-77.5 -115t-45.5 -138t-14 -150zM541 299q98 -98 256 -98q85 0 154 29.5t114 78.5t75.5 116.5t44 140.5t13.5 153q0 192 -80 323z" />
<glyph unicode="&#xd9;" horiz-adv-x="1478" d="M156 516v914h286v-826q0 -194 70 -298.5t227 -104.5t227 104.5t70 298.5v826h287v-914q0 -541 -584 -541q-583 0 -583 541zM457 1821h280l170 -299h-170z" />
<glyph unicode="&#xda;" horiz-adv-x="1478" d="M156 516v914h286v-826q0 -194 70 -298.5t227 -104.5t227 104.5t70 298.5v826h287v-914q0 -541 -584 -541q-583 0 -583 541zM571 1522l170 299h281l-281 -299h-170z" />
<glyph unicode="&#xdb;" horiz-adv-x="1478" d="M156 516v914h286v-826q0 -194 70 -298.5t227 -104.5t227 104.5t70 298.5v826h287v-914q0 -541 -584 -541q-583 0 -583 541zM416 1522l225 299h207l215 -299h-182l-140 176l-143 -176h-182z" />
<glyph unicode="&#xdc;" horiz-adv-x="1478" d="M156 516v914h286v-826q0 -194 70 -298.5t227 -104.5t227 104.5t70 298.5v826h287v-914q0 -541 -584 -541q-583 0 -583 541zM410 1571v237h237v-237h-237zM831 1571v237h238v-237h-238z" />
<glyph unicode="&#xdd;" horiz-adv-x="1366" d="M23 1430h335l338 -601l344 601h303l-512 -865v-565h-286v565zM516 1522l170 299h281l-281 -299h-170z" />
<glyph unicode="&#xde;" d="M141 0v1430h287v-238h76q99 0 182 -12t161.5 -42.5t133 -78.5t87 -125t32.5 -176q0 -98 -28 -175t-77 -129t-119.5 -85.5t-151 -48.5t-175.5 -15h-121v-305h-287zM428 530h100q57 0 103.5 10.5t86 33.5t61.5 66t22 103q0 117 -76 170.5t-197 53.5h-100v-437z" />
<glyph unicode="&#xdf;" horiz-adv-x="1251" d="M147 0v1034q0 240 129.5 383.5t374.5 143.5q87 0 168.5 -24.5t148.5 -70t107.5 -119t40.5 -163.5q0 -140 -69.5 -234t-202.5 -129v-4q153 -20 249.5 -126t96.5 -251q0 -207 -134 -329.5t-345 -122.5q-27 0 -55 2.5t-44 5t-44.5 8t-35.5 6.5l9 213q64 -22 143 -22 q27 0 53 5t57.5 22.5t54.5 45.5t38.5 78t15.5 117q0 231 -321 231v213q118 0 182.5 55t64.5 169q0 92 -46.5 151.5t-135.5 59.5q-58 0 -102.5 -25.5t-70.5 -68t-39 -93t-13 -104.5v-1057h-275z" />
<glyph unicode="&#xe0;" d="M74 289q0 213 180 301q124 61 354 61h152q0 125 -56.5 176.5t-181.5 51.5q-174 0 -325 -115l-9 235q79 37 179 58.5t188 21.5q241 0 348 -105t107 -339v-135q0 -108 4 -264q3 -109 12 -236h-242q-4 20 -12 158h-4q-46 -85 -137 -134t-189 -49q-95 0 -177.5 35.5 t-136.5 109t-54 169.5zM252 1497h280l170 -299h-170zM336 305q0 -64 48 -96.5t126 -32.5q121 0 192 94q58 76 58 217h-119q-305 0 -305 -182z" />
<glyph unicode="&#xe1;" d="M74 289q0 213 180 301q124 61 354 61h152q0 125 -56.5 176.5t-181.5 51.5q-174 0 -325 -115l-9 235q79 37 179 58.5t188 21.5q241 0 348 -105t107 -339v-135q0 -108 4 -264q3 -109 12 -236h-242q-4 20 -12 158h-4q-46 -85 -137 -134t-189 -49q-95 0 -177.5 35.5 t-136.5 109t-54 169.5zM336 305q0 -64 48 -96.5t126 -32.5q121 0 192 94q58 76 58 217h-119q-305 0 -305 -182zM418 1198l170 299h280l-280 -299h-170z" />
<glyph unicode="&#xe2;" d="M74 289q0 213 180 301q124 61 354 61h152q0 125 -56.5 176.5t-181.5 51.5q-174 0 -325 -115l-9 235q79 37 179 58.5t188 21.5q241 0 348 -105t107 -339v-135q0 -108 4 -264q3 -109 12 -236h-242q-4 20 -12 158h-4q-46 -85 -137 -134t-189 -49q-95 0 -177.5 35.5 t-136.5 109t-54 169.5zM246 1198l225 299h207l215 -299h-182l-140 176l-143 -176h-182zM336 305q0 -64 48 -96.5t126 -32.5q121 0 192 94q58 76 58 217h-119q-305 0 -305 -182z" />
<glyph unicode="&#xe3;" d="M74 289q0 213 180 301q124 61 354 61h152q0 125 -56.5 176.5t-181.5 51.5q-174 0 -325 -115l-9 235q79 37 179 58.5t188 21.5q241 0 348 -105t107 -339v-135q0 -108 4 -264q3 -109 12 -236h-242q-4 20 -12 158h-4q-46 -85 -137 -134t-189 -49q-95 0 -177.5 35.5 t-136.5 109t-54 169.5zM207 1235q0 96 60.5 172t148.5 76q57 0 166 -41q13 -5 37 -15t37.5 -15.5t34.5 -10t40 -4.5q44 0 67 28t23 72h111q0 -107 -53.5 -177.5t-145.5 -70.5q-78 0 -176 37q-99 39 -139 39q-49 0 -75 -28t-26 -62h-110zM336 305q0 -64 48 -96.5t126 -32.5 q121 0 192 94q58 76 58 217h-119q-305 0 -305 -182z" />
<glyph unicode="&#xe4;" d="M74 289q0 213 180 301q124 61 354 61h152q0 125 -56.5 176.5t-181.5 51.5q-174 0 -325 -115l-9 235q79 37 179 58.5t188 21.5q241 0 348 -105t107 -339v-135q0 -108 4 -264q3 -109 12 -236h-242q-4 20 -12 158h-4q-46 -85 -137 -134t-189 -49q-95 0 -177.5 35.5 t-136.5 109t-54 169.5zM240 1247v238h237v-238h-237zM336 305q0 -64 48 -96.5t126 -32.5q121 0 192 94q58 76 58 217h-119q-305 0 -305 -182zM662 1247v238h237v-238h-237z" />
<glyph unicode="&#xe5;" d="M74 289q0 213 180 301q124 61 354 61h152q0 125 -56.5 176.5t-181.5 51.5q-174 0 -325 -115l-9 235q79 37 179 58.5t188 21.5q241 0 348 -105t107 -339v-135q0 -108 4 -264q3 -109 12 -236h-242q-4 20 -12 158h-4q-46 -85 -137 -134t-189 -49q-95 0 -177.5 35.5 t-136.5 109t-54 169.5zM336 305q0 -64 48 -96.5t126 -32.5q121 0 192 94q58 76 58 217h-119q-305 0 -305 -182zM352 1403q0 89 65 154t154 65q90 0 153.5 -64.5t63.5 -154.5q0 -91 -63 -154t-154 -63q-90 0 -154.5 63.5t-64.5 153.5zM463 1403q0 -45 31.5 -76t76.5 -31 q44 0 75.5 31.5t31.5 75.5q0 45 -31 76.5t-76 31.5q-46 0 -77 -31t-31 -77z" />
<glyph unicode="&#xe6;" horiz-adv-x="1820" d="M74 289q0 84 32 149t83.5 104.5t122.5 64.5t141.5 34.5t148.5 9.5h158q0 117 -55.5 173.5t-188.5 56.5q-172 0 -326 -117l-8 235q80 37 180.5 58.5t194.5 21.5q125 0 205 -26t153 -107q127 133 361 133q109 0 192.5 -35.5t135.5 -94t85 -143t45.5 -172.5t12.5 -192h-725 q0 -125 86 -195.5t217 -70.5q159 0 350 107v-224q-153 -84 -362 -84q-309 0 -443 191q-58 -95 -166.5 -144.5t-226.5 -46.5q-62 0 -119 10.5t-109.5 34.5t-90.5 59.5t-61 89t-23 120.5zM336 289q0 -48 42.5 -80.5t113.5 -32.5q145 0 206.5 75t61.5 236h-119 q-55 0 -103.5 -8.5t-96.5 -28.5t-76.5 -61.5t-28.5 -99.5zM1022 631h463q0 106 -54 177t-161 71q-117 0 -182.5 -70.5t-65.5 -177.5z" />
<glyph unicode="&#xe7;" horiz-adv-x="909" d="M74 532q0 115 34 214t97 173.5t160.5 117t218.5 42.5q150 0 266 -35l-25 -217q-83 39 -186 39q-127 0 -203 -92t-76 -242q0 -153 73 -248.5t212 -95.5q93 0 211 50l12 -228q-103 -30 -227 -33l-76 -86l4 -4q8 1 24.5 5t31 6t28.5 2q66 0 115 -37t49 -105 q0 -57 -22.5 -99.5t-60.5 -66.5t-81.5 -35.5t-91.5 -11.5q-146 0 -237 43l41 111q6 -2 23.5 -7.5t28 -8.5t27 -7t32.5 -6t32 -2q45 0 76.5 17t31.5 55q0 37 -25.5 55.5t-64.5 18.5q-31 0 -86 -19l-30 53l106 134q-215 23 -328.5 171.5t-113.5 378.5z" />
<glyph unicode="&#xe8;" d="M74 522q0 116 31 216t90 176.5t153.5 120.5t214.5 44q115 0 202.5 -31.5t143.5 -86t91.5 -136.5t50 -174.5t14.5 -208.5h-729q9 -126 90.5 -196t210.5 -70q159 0 350 107v-224q-153 -84 -362 -84q-261 0 -406 144t-145 403zM252 1497h280l170 -299h-170zM336 631h467 q-7 110 -61 179t-162 69q-111 0 -173 -68t-71 -180z" />
<glyph unicode="&#xe9;" d="M74 522q0 116 31 216t90 176.5t153.5 120.5t214.5 44q115 0 202.5 -31.5t143.5 -86t91.5 -136.5t50 -174.5t14.5 -208.5h-729q9 -126 90.5 -196t210.5 -70q159 0 350 107v-224q-153 -84 -362 -84q-261 0 -406 144t-145 403zM336 631h467q-7 110 -61 179t-162 69 q-111 0 -173 -68t-71 -180zM418 1198l170 299h280l-280 -299h-170z" />
<glyph unicode="&#xea;" d="M74 522q0 116 31 216t90 176.5t153.5 120.5t214.5 44q115 0 202.5 -31.5t143.5 -86t91.5 -136.5t50 -174.5t14.5 -208.5h-729q9 -126 90.5 -196t210.5 -70q159 0 350 107v-224q-153 -84 -362 -84q-261 0 -406 144t-145 403zM246 1198l225 299h207l215 -299h-182l-140 176 l-143 -176h-182zM336 631h467q-7 110 -61 179t-162 69q-111 0 -173 -68t-71 -180z" />
<glyph unicode="&#xeb;" d="M74 522q0 116 31 216t90 176.5t153.5 120.5t214.5 44q115 0 202.5 -31.5t143.5 -86t91.5 -136.5t50 -174.5t14.5 -208.5h-729q9 -126 90.5 -196t210.5 -70q159 0 350 107v-224q-153 -84 -362 -84q-261 0 -406 144t-145 403zM240 1247v238h237v-238h-237zM336 631h467 q-7 110 -61 179t-162 69q-111 0 -173 -68t-71 -180zM662 1247v238h237v-238h-237z" />
<glyph unicode="&#xec;" horiz-adv-x="569" d="M-33 1497h281l170 -299h-170zM147 0v1055h275v-1055h-275z" />
<glyph unicode="&#xed;" horiz-adv-x="569" d="M133 1198l170 299h281l-281 -299h-170zM147 0v1055h275v-1055h-275z" />
<glyph unicode="&#xee;" horiz-adv-x="569" d="M-39 1198l225 299h207l215 -299h-182l-139 176l-144 -176h-182zM147 0v1055h275v-1055h-275z" />
<glyph unicode="&#xef;" horiz-adv-x="569" d="M-45 1247v238h238v-238h-238zM147 0v1055h275v-1055h-275zM377 1247v238h237v-238h-237z" />
<glyph unicode="&#xf0;" horiz-adv-x="1251" d="M74 520q-2 106 30 203t92 170.5t152.5 117.5t202.5 44q151 0 252 -66h4q-65 138 -217 254l-189 -123l-104 97l170 110q-102 64 -203 98l125 140q136 -50 260 -121l189 121l104 -97l-170 -108q188 -144 293.5 -342t105.5 -440q0 -291 -142 -447t-404 -156 q-169 0 -296 73.5t-191 196t-64 275.5zM360 514q0 -60 14.5 -115t44.5 -103.5t83.5 -78t124.5 -29.5q54 0 98 18t73.5 49t49 73t28.5 88.5t9 97.5q0 56 -15 112t-44.5 105.5t-80.5 80t-116 30.5t-118 -30t-85 -78t-49 -105t-17 -115z" />
<glyph unicode="&#xf1;" horiz-adv-x="1251" d="M141 0v1055h260v-144h5q119 168 346 168q180 0 269 -112.5t89 -300.5v-666h-274v563q0 42 -1 68t-6 67t-16.5 66t-30.5 51t-51 38.5t-74 12.5q-70 0 -120.5 -34.5t-75 -91t-35 -111.5t-10.5 -113v-516h-275zM264 1235q0 96 60.5 172t148.5 76q57 0 166 -41q13 -5 37 -15 t37.5 -15.5t34.5 -10t40 -4.5q44 0 67.5 28t23.5 72h110q0 -107 -53 -177.5t-145 -70.5q-79 0 -177 37q-99 39 -139 39q-49 0 -74.5 -28t-25.5 -62h-111z" />
<glyph unicode="&#xf2;" horiz-adv-x="1251" d="M74 520q0 255 156 407t395 152q240 0 396.5 -152t156.5 -407q0 -114 -37.5 -213t-107 -173t-175 -116.5t-233.5 -42.5q-169 0 -296 73.5t-191 196t-64 275.5zM309 1497h281l170 -299h-170zM360 553q0 -56 7.5 -105.5t26 -98t47.5 -83.5t76.5 -56.5t107.5 -21.5 q76 0 130 31.5t82.5 86t41 115t12.5 132.5q0 84 -28 153.5t-90 114.5t-148 45q-126 0 -195.5 -92.5t-69.5 -220.5z" />
<glyph unicode="&#xf3;" horiz-adv-x="1251" d="M74 520q0 255 156 407t395 152q240 0 396.5 -152t156.5 -407q0 -114 -37.5 -213t-107 -173t-175 -116.5t-233.5 -42.5q-169 0 -296 73.5t-191 196t-64 275.5zM360 553q0 -56 7.5 -105.5t26 -98t47.5 -83.5t76.5 -56.5t107.5 -21.5q76 0 130 31.5t82.5 86t41 115 t12.5 132.5q0 84 -28 153.5t-90 114.5t-148 45q-126 0 -195.5 -92.5t-69.5 -220.5zM475 1198l170 299h281l-281 -299h-170z" />
<glyph unicode="&#xf4;" horiz-adv-x="1251" d="M74 520q0 255 156 407t395 152q240 0 396.5 -152t156.5 -407q0 -114 -37.5 -213t-107 -173t-175 -116.5t-233.5 -42.5q-169 0 -296 73.5t-191 196t-64 275.5zM303 1198l225 299h207l215 -299h-182l-139 176l-144 -176h-182zM360 553q0 -56 7.5 -105.5t26 -98t47.5 -83.5 t76.5 -56.5t107.5 -21.5q76 0 130 31.5t82.5 86t41 115t12.5 132.5q0 84 -28 153.5t-90 114.5t-148 45q-126 0 -195.5 -92.5t-69.5 -220.5z" />
<glyph unicode="&#xf5;" horiz-adv-x="1251" d="M74 520q0 255 156 407t395 152q240 0 396.5 -152t156.5 -407q0 -114 -37.5 -213t-107 -173t-175 -116.5t-233.5 -42.5q-169 0 -296 73.5t-191 196t-64 275.5zM264 1235q0 96 60.5 172t148.5 76q57 0 166 -41q13 -5 37 -15t37.5 -15.5t34.5 -10t40 -4.5q44 0 67.5 28 t23.5 72h110q0 -107 -53 -177.5t-145 -70.5q-79 0 -177 37q-99 39 -139 39q-49 0 -74.5 -28t-25.5 -62h-111zM360 553q0 -56 7.5 -105.5t26 -98t47.5 -83.5t76.5 -56.5t107.5 -21.5q76 0 130 31.5t82.5 86t41 115t12.5 132.5q0 84 -28 153.5t-90 114.5t-148 45 q-126 0 -195.5 -92.5t-69.5 -220.5z" />
<glyph unicode="&#xf6;" horiz-adv-x="1251" d="M74 520q0 255 156 407t395 152q240 0 396.5 -152t156.5 -407q0 -114 -37.5 -213t-107 -173t-175 -116.5t-233.5 -42.5q-169 0 -296 73.5t-191 196t-64 275.5zM297 1247v238h238v-238h-238zM360 553q0 -56 7.5 -105.5t26 -98t47.5 -83.5t76.5 -56.5t107.5 -21.5 q76 0 130 31.5t82.5 86t41 115t12.5 132.5q0 84 -28 153.5t-90 114.5t-148 45q-126 0 -195.5 -92.5t-69.5 -220.5zM719 1247v238h237v-238h-237z" />
<glyph unicode="&#xf7;" horiz-adv-x="1228" d="M94 412v213h1041v-213h-1041zM457 111q0 69 43.5 113t113.5 44t114 -44t44 -113t-44 -113.5t-114 -44.5t-113.5 44.5t-43.5 113.5zM457 926q0 69 43.5 113t113.5 44t114 -44t44 -113t-44 -113.5t-114 -44.5t-113.5 44.5t-43.5 113.5z" />
<glyph unicode="&#xf8;" horiz-adv-x="1251" d="M74 520q0 255 156 407t395 152q177 0 315 -86l111 133l82 -67l-111 -133q156 -153 156 -406q0 -114 -37.5 -213t-107 -173t-175 -116.5t-233.5 -42.5q-181 0 -322 88l-113 -135l-84 68l115 137q-147 147 -147 387zM360 553q0 -125 37 -209l389 467q-65 55 -161 55 q-126 0 -195.5 -92.5t-69.5 -220.5zM459 250q65 -62 166 -62q76 0 130 31.5t82.5 86t41 115t12.5 132.5q0 97 -37 172z" />
<glyph unicode="&#xf9;" horiz-adv-x="1251" d="M141 389v666h275v-563q0 -36 0.5 -58t4 -58t10 -58.5t19.5 -50t31.5 -42.5t47 -26t65.5 -11q57 0 101.5 24t70 60.5t42 85t22.5 92.5t6 89v516h274v-1055h-260v143h-4q-138 -168 -346 -168q-180 0 -269.5 113t-89.5 301zM309 1497h281l170 -299h-170z" />
<glyph unicode="&#xfa;" horiz-adv-x="1251" d="M141 389v666h275v-563q0 -36 0.5 -58t4 -58t10 -58.5t19.5 -50t31.5 -42.5t47 -26t65.5 -11q57 0 101.5 24t70 60.5t42 85t22.5 92.5t6 89v516h274v-1055h-260v143h-4q-138 -168 -346 -168q-180 0 -269.5 113t-89.5 301zM475 1198l170 299h281l-281 -299h-170z" />
<glyph unicode="&#xfb;" horiz-adv-x="1251" d="M141 389v666h275v-563q0 -36 0.5 -58t4 -58t10 -58.5t19.5 -50t31.5 -42.5t47 -26t65.5 -11q57 0 101.5 24t70 60.5t42 85t22.5 92.5t6 89v516h274v-1055h-260v143h-4q-138 -168 -346 -168q-180 0 -269.5 113t-89.5 301zM303 1198l225 299h207l215 -299h-182l-139 176 l-144 -176h-182z" />
<glyph unicode="&#xfc;" horiz-adv-x="1251" d="M141 389v666h275v-563q0 -36 0.5 -58t4 -58t10 -58.5t19.5 -50t31.5 -42.5t47 -26t65.5 -11q57 0 101.5 24t70 60.5t42 85t22.5 92.5t6 89v516h274v-1055h-260v143h-4q-138 -168 -346 -168q-180 0 -269.5 113t-89.5 301zM297 1247v238h238v-238h-238zM719 1247v238h237 v-238h-237z" />
<glyph unicode="&#xfd;" d="M23 1055h303l254 -770h4l254 770h278l-395 -1047q-66 -174 -84 -212q-71 -155 -175 -210q-75 -41 -179 -41q-93 0 -195 29l18 203q55 -19 142 -19q82 0 130 51.5t48 137.5zM418 1198l170 299h280l-280 -299h-170z" />
<glyph unicode="&#xfe;" horiz-adv-x="1251" d="M141 -430v1966h275v-618h4q42 71 121.5 116t193.5 45q95 0 170.5 -29.5t126 -80t84 -121t48 -149.5t14.5 -169q0 -113 -24.5 -209.5t-75 -175.5t-138.5 -124.5t-205 -45.5q-202 0 -315 144h-4v-549h-275zM418 530q0 -47 7.5 -93t25.5 -92t44.5 -80t69 -55.5t94.5 -21.5 q64 0 111.5 32t72.5 85t36.5 109.5t11.5 115.5q0 58 -11 113t-35 107t-71 84t-110 32t-112 -31.5t-77.5 -82t-42.5 -107.5t-14 -115z" />
<glyph unicode="&#xff;" d="M23 1055h303l254 -770h4l254 770h278l-395 -1047q-66 -174 -84 -212q-71 -155 -175 -210q-75 -41 -179 -41q-93 0 -195 29l18 203q55 -19 142 -19q82 0 130 51.5t48 137.5zM240 1247v238h237v-238h-237zM662 1247v238h237v-238h-237z" />
<glyph unicode="&#x152;" horiz-adv-x="1933" d="M96 707q0 182 54.5 322t155.5 230.5t242.5 136.5t317.5 46q106 0 211 -6q210 -6 211 -6h535v-226h-533v-352h488v-225h-488v-402h541v-225h-543q-115 0 -229 -6q-228 -6 -230 -6q-733 0 -733 719zM395 707q0 -142 51.5 -252t158 -175.5t255.5 -66.5q62 0 144 12v979 q-93 13 -152 13q-214 0 -335.5 -138.5t-121.5 -371.5z" />
<glyph unicode="&#x153;" horiz-adv-x="1933" d="M74 520q0 255 156 407t395 152q124 0 226 -45.5t167 -134.5q60 88 158.5 134t209.5 46t196 -35t137 -93t84.5 -142t44.5 -172.5t12 -194.5h-689q3 -130 83 -198t210 -68q172 0 314 105l8 -224q-22 -13 -30 -17t-43.5 -19.5t-66 -23t-82.5 -15t-108 -7.5q-148 0 -256.5 39 t-171.5 136q-124 -175 -403 -175q-169 0 -296 73.5t-191 196t-64 275.5zM360 526q0 -68 13.5 -127t43 -111t83 -82t125.5 -30q73 0 127.5 28.5t85 79t45 110t14.5 128.5q0 70 -14 130.5t-44.5 113t-85 83t-128.5 30.5q-67 0 -120 -32.5t-83.5 -85.5t-46 -113t-15.5 -122z M1171 631h426q-3 109 -53 178.5t-155 69.5q-100 0 -159 -73.5t-59 -174.5z" />
<glyph unicode="&#x178;" horiz-adv-x="1366" d="M23 1430h335l338 -601l344 601h303l-512 -865v-565h-286v565zM354 1571v237h238v-237h-238zM776 1571v237h238v-237h-238z" />
<glyph unicode="&#x2c6;" horiz-adv-x="569" d="M-39 1198l225 299h207l215 -299h-182l-139 176l-144 -176h-182z" />
<glyph unicode="&#x2dc;" horiz-adv-x="569" d="M-78 1235q0 96 60.5 172t148.5 76q57 0 166 -41q13 -5 37 -15t37.5 -15.5t34.5 -10t40 -4.5q44 0 67.5 28t23.5 72h110q0 -107 -53 -177.5t-145 -70.5q-79 0 -177 37q-99 39 -139 39q-49 0 -74.5 -28t-25.5 -62h-111z" />
<glyph unicode="&#x2000;" horiz-adv-x="957" />
<glyph unicode="&#x2001;" horiz-adv-x="1915" />
<glyph unicode="&#x2002;" horiz-adv-x="957" />
<glyph unicode="&#x2003;" horiz-adv-x="1915" />
<glyph unicode="&#x2004;" horiz-adv-x="638" />
<glyph unicode="&#x2005;" horiz-adv-x="478" />
<glyph unicode="&#x2006;" horiz-adv-x="319" />
<glyph unicode="&#x2007;" horiz-adv-x="319" />
<glyph unicode="&#x2008;" horiz-adv-x="239" />
<glyph unicode="&#x2009;" horiz-adv-x="383" />
<glyph unicode="&#x200a;" horiz-adv-x="106" />
<glyph unicode="&#x2010;" horiz-adv-x="681" d="M72 438v226h538v-226h-538z" />
<glyph unicode="&#x2011;" horiz-adv-x="681" d="M72 438v226h538v-226h-538z" />
<glyph unicode="&#x2012;" horiz-adv-x="681" d="M72 438v226h538v-226h-538z" />
<glyph unicode="&#x2013;" horiz-adv-x="1024" d="M0 457v188h1024v-188h-1024z" />
<glyph unicode="&#x2014;" horiz-adv-x="2048" d="M0 457v188h2048v-188h-2048z" />
<glyph unicode="&#x2018;" horiz-adv-x="569" d="M70 918l186 512h244l-129 -512h-301z" />
<glyph unicode="&#x2019;" horiz-adv-x="569" d="M70 918l131 512h299l-189 -512h-241z" />
<glyph unicode="&#x201a;" horiz-adv-x="569" d="M70 -225l131 512h299l-189 -512h-241z" />
<glyph unicode="&#x201c;" horiz-adv-x="985" d="M70 918l186 512h244l-129 -512h-301zM485 918l187 512h243l-129 -512h-301z" />
<glyph unicode="&#x201d;" horiz-adv-x="985" d="M70 918l131 512h299l-189 -512h-241zM485 918l131 512h299l-188 -512h-242z" />
<glyph unicode="&#x201e;" horiz-adv-x="985" d="M70 -225l131 512h299l-189 -512h-241zM485 -225l131 512h299l-188 -512h-242z" />
<glyph unicode="&#x2022;" horiz-adv-x="1024" d="M156 715q0 148 104 252t252 104t253 -104t105 -252t-105 -253.5t-253 -105.5q-147 0 -251.5 105.5t-104.5 253.5z" />
<glyph unicode="&#x2026;" horiz-adv-x="2048" d="M199 0v287h286v-287h-286zM881 0v287h286v-287h-286zM1563 0v287h286v-287h-286z" />
<glyph unicode="&#x202f;" horiz-adv-x="383" />
<glyph unicode="&#x2039;" horiz-adv-x="681" d="M100 551l242 420h258l-225 -420l225 -420h-258z" />
<glyph unicode="&#x203a;" horiz-adv-x="681" d="M82 131l225 420l-225 420h258l242 -420l-242 -420h-258z" />
<glyph unicode="&#x205f;" horiz-adv-x="478" />
<glyph unicode="&#x20ac;" d="M-8 510l31 125h153q-6 80 0 160h-184l31 125h174q58 245 244.5 389.5t439.5 144.5q191 0 340 -55l-54 -213q-98 49 -241 49q-152 0 -261.5 -85t-156.5 -230h600l-31 -125h-602q-9 -80 0 -160h565l-28 -125h-504q47 -143 156 -226t260 -83q141 0 243 45l13 -230 q-116 -41 -295 -41q-263 0 -448.5 140.5t-241.5 394.5h-203z" />
<glyph unicode="&#x2122;" horiz-adv-x="2048" d="M98 1266v164h693v-164h-240v-688h-213v688h-240zM952 578v852h297l203 -533l201 533h297v-852h-201v602h-4l-217 -602h-154l-217 602h-4v-602h-201z" />
<glyph unicode="&#xe000;" horiz-adv-x="1054" d="M0 0v1055h1055v-1055h-1055z" />
</font>
</defs>
</svg>
